<svg width="16" height="16" viewBox="0 0 16 16" fill="none" xmlns="http://www.w3.org/2000/svg">
<path fill-rule="evenodd" clip-rule="evenodd" d="M6.66671 12C3.72119 12 1.33337 9.6122 1.33337 6.66668C1.33337 3.72116 3.72119 1.33334 6.66671 1.33334C9.61223 1.33334 12 3.72116 12 6.66668C12 7.89915 11.582 9.03398 10.8799 9.93711L14.4714 13.5286L13.5286 14.4714L9.93714 10.8799C9.03401 11.582 7.89918 12 6.66671 12ZM10.6667 6.66668C10.6667 8.87582 8.87585 10.6667 6.66671 10.6667C4.45757 10.6667 2.66671 8.87582 2.66671 6.66668C2.66671 4.45754 4.45757 2.66668 6.66671 2.66668C8.87585 2.66668 10.6667 4.45754 10.6667 6.66668Z" />
</svg>
